# xmcd
#
# Track frame offsets:
#	150
#	8063
#	26333
#	48871
#	63676
#	83604
#	103649
#	120757
#	140751
#	158993
#	162519
#	187516
#	202764
#	221253
#	245456
#	268596
#	287123
#
# Disc length: 4080 seconds
#
# Revision: 0
# Processed by: cddbd v1.5.2PL0 Copyright (c) Steve Scherf et al.
# Submitted via: dBpowerAMP V4.0
#
DISCID=d90fee11
DTITLE=0,5 Milimetros - Jugamos?
DYEAR=1900
DGENRE=
TTITLE0=Intro
TTITLE1=Abran paso
TTITLE2=En el tunel (Con Trebol3)
TTITLE3=Quiero ser libre
TTITLE4=Mas
TTITLE5=El envoltorio de la fama (Con Nikoh E.S.)
TTITLE6=No solo quedan luces
TTITLE7=Mar de formas
TTITLE8=No teneis ni idea (Con Tommisanto)
TTITLE9=Interludio
TTITLE10=Las de siempre (Copn TMT y Nava)
TTITLE11=Sueño despierto
TTITLE12=Desde Alicante hasta tu calle (Con BLS and Valdes)
TTITLE13=Un buen dia para un triste final
TTITLE14=Decepciones (Con Lesky, Pozo y Dj Klean)
TTITLE15=Donde el sol sale del agua
TTITLE16=Lo que empieza...
EXTD=
EXTT0=
EXTT1=
EXTT2=
EXTT3=
EXTT4=
EXTT5=
EXTT6=
EXTT7=
EXTT8=
EXTT9=
EXTT10=
EXTT11=
EXTT12=
EXTT13=
EXTT14=
EXTT15=
EXTT16=
PLAYORDER=
